<svg xmlns="http://www.w3.org/2000/svg" viewBox="0 0 797.79 189.27"><defs><style>.a{fill:#0b7abf;}.b{fill:#7ebb4c;}</style></defs><title>freeBay-logo</title><path class="a" d="M241,35.48l-7.1,27.25a25.55,25.55,0,0,0-10.86-2q-20.17-.05-24.18,27l-7.54,49.47L162,137.06,177.65,34.65l29.25.06-1.11,7.14c8.13-6.35,16.07-9.51,23.93-9.48A23.32,23.32,0,0,1,241,35.48Zm95.9,57-69.57-.13Q270,114.19,289,114.23c8.69,0,16.18-4.05,22.38-12.27l20.78,10.79q-20.36,25.21-47,25.14-21.65,0-35.42-13.8T236,88.92a55.74,55.74,0,0,1,15.79-39.73q15.75-16.53,37.63-16.49c14.68.06,26.32,5,34.93,14.89S337.15,72.45,336.89,92.45ZM268.78,72l41.39.06q-2-16.35-19.71-16.42Q275.27,55.64,268.78,72ZM445.52,92.63,376,92.52q2.69,21.91,21.72,21.9c8.69,0,16.13-4,22.37-12.26L440.84,113q-20.4,25.21-47,25.13-21.61,0-35.42-13.79T344.63,89.11a55.64,55.64,0,0,1,15.79-39.73Q376.16,32.87,398,32.92c14.69,0,26.33,5,35,14.88S445.79,72.65,445.52,92.63ZM377.41,72.2l41.39.08c-1.35-10.9-7.92-16.41-19.72-16.43Q383.94,55.85,377.41,72.2Z"/><path class="a" d="M115.23,32.16c-.21.46-1.87,4.62-4.51,11.26C104.76-29,35.19,38.51,1.59,0c-5.76,32.92,6,37,6,37-2.7,10.66,7.54,22.4,16.08,21.06C30.8,93.39,104.86,44.32,88.49,99.6c-15.54,39.35-32.1,81.29-32.1,81.29l34.29.29,28.4-73,35.16.08,5.07-32.65-27.5-.06c7.3-18.76,12.65-30.47,15.38-35.56,5.35-10.15,16.73-11.15,23.93-7.68L175.54,4C145.76-7.9,123.73,11,115.23,32.16ZM89.1,59.77c-12.68-18.46-42.8,8-49.55-12.66-8.16,1.7-11.1-7.74-9.1-11.08,0,0-6.76-1.1-5.95-10.72C48.93,41.77,94.53.34,89.1,59.77Z"/><path class="b" d="M528.12,2.76A67.15,67.15,0,0,1,542.33,4.3a39.64,39.64,0,0,1,12.77,5.09,28.89,28.89,0,0,1,9.22,9.22,25.72,25.72,0,0,1,3.55,13.92q0,13.82-8.06,22.66a41.32,41.32,0,0,1-20.93,12.1v.38A29.65,29.65,0,0,1,556.25,77q7,7.59,7,19.68a37.31,37.31,0,0,1-4.32,18.24,38,38,0,0,1-12,13.15,56.3,56.3,0,0,1-18.43,8,96.32,96.32,0,0,1-23.42,2.69H450.93l24-135.94ZM491.44,80.52,485.88,113H504.5a51.65,51.65,0,0,0,10.18-1,28.67,28.67,0,0,0,8.54-3.07,16.06,16.06,0,0,0,6-5.76,16.77,16.77,0,0,0,2.21-8.83,11.89,11.89,0,0,0-5-10.18q-5-3.65-14.21-3.65Zm9.22-52-5,29h19.58a35.94,35.94,0,0,0,7.2-.76A20.62,20.62,0,0,0,529.27,54a15.73,15.73,0,0,0,5.09-5.15,14.88,14.88,0,0,0,2-8q0-6.68-5.18-9.54t-13.06-2.86Z"/><path class="b" d="M671.35,64.52q0,3-.32,6.32a63.72,63.72,0,0,1-.95,6.53l-7.17,40.88q-1.06,5.48-1.58,11.17t-.53,9.27H630.9q0-2.32.21-5.37t.63-5.79h-.42q-11.59,13.7-32,13.7A49,49,0,0,1,588,139.86a30.93,30.93,0,0,1-10.54-4.64,24.75,24.75,0,0,1-7.69-8.64,27,27,0,0,1-3-13.17q0-12.64,6.32-20.65A41.74,41.74,0,0,1,589.7,80.33a86.2,86.2,0,0,1,23.18-6.11,201.74,201.74,0,0,1,26-1.69,14.7,14.7,0,0,0,.42-3v-1.9q0-6.11-4.32-9t-12.12-2.84a40.77,40.77,0,0,0-14.43,2.74,52.91,52.91,0,0,0-13.17,7.16L581.38,46.4a70,70,0,0,1,21.81-11.7,76.64,76.64,0,0,1,24.34-4.11,72.1,72.1,0,0,1,17.49,2,39.57,39.57,0,0,1,13.8,6.22A30.82,30.82,0,0,1,668,49.35,31.87,31.87,0,0,1,671.35,64.52Zm-37.3,28.24q-6.32,0-12.85.53a51,51,0,0,0-11.7,2.21,24.2,24.2,0,0,0-8.53,4.64,9.86,9.86,0,0,0-3.37,7.8q0,6.32,4.32,8.53a20.71,20.71,0,0,0,9.59,2.21,23.07,23.07,0,0,0,16.23-6A26.38,26.38,0,0,0,636,97.82L637,92.76Z"/><path class="b" d="M729.09,154.5q-4.64,8.22-9.17,14.75a53.84,53.84,0,0,1-9.9,11A38.21,38.21,0,0,1,697.69,187a51.38,51.38,0,0,1-16.23,2.32A57.82,57.82,0,0,1,664.19,187l5.06-27.81a25.91,25.91,0,0,0,9.9,1.9q7.37,0,11.48-3.69a40.81,40.81,0,0,0,7.9-10.43l5.06-8.64L679.36,33.76h36.88l10.54,68.7h.42L762,33.76h35.82Z"/></svg>