<svg xmlns="http://www.w3.org/2000/svg" width="195.52mm" height="58.37mm" viewBox="0 0 554.22 165.46"><defs><style>.a{fill:#0b7abf;}.b{fill:#7ebb4c;}.c{fill:#fff9e8;}.d{fill:#ffedc1;}.e,.j{fill:#0d324b;}.f{fill:#cc9307;}.g{fill:#e6f2f9;}.h{fill:#9a6f13;}.i{fill:#3c7c45;}.j{font-size:52.36px;font-family:Funktion, Funktion;letter-spacing:-0.05em;}</style></defs><title>freeBay-logo-withtags</title><path class="a" d="M140.63,20.7l-4.14,15.9a14.91,14.91,0,0,0-6.34-1.19q-11.77,0-14.11,15.73L111.64,80,94.56,80l9.12-59.76,17.07,0-.65,4.17c4.74-3.7,9.38-5.55,14-5.53A13.61,13.61,0,0,1,140.63,20.7Zm56,33.25L156,53.88q1.59,12.76,12.67,12.79c5.07,0,9.44-2.37,13.06-7.16l12.13,6.3Q182,80.51,166.42,80.47q-12.63,0-20.67-8.06t-8-20.52a32.53,32.53,0,0,1,9.22-23.19,29.22,29.22,0,0,1,22-9.62c8.57,0,15.36,2.91,20.38,8.69S196.75,42.28,196.6,53.95ZM156.85,42l24.15,0q-1.19-9.54-11.5-9.58Q160.64,32.47,156.85,42ZM260,54.06,219.4,54Q221,66.77,232.08,66.77c5.07,0,9.41-2.36,13.05-7.15l12.13,6.3q-11.91,14.71-27.46,14.66-12.61,0-20.67-8t-8-20.53a32.47,32.47,0,0,1,9.22-23.18q9.18-9.63,21.95-9.61c8.58,0,15.36,2.9,20.4,8.68S260.15,42.39,260,54.06ZM220.24,42.13l24.15,0c-.79-6.36-4.62-9.58-11.51-9.59Q224.06,32.59,220.24,42.13Z"/><path class="a" d="M67.24,18.77c-.12.27-1.09,2.7-2.63,6.57C61.14-16.91,20.54,22.47.93,0-2.43,19.21,4.43,21.6,4.43,21.6c-1.57,6.22,4.4,13.07,9.38,12.29,4.16,20.61,47.38-8,37.82,24.23-9.07,23-18.73,47.44-18.73,47.44l20,.17L69.49,63.1l20.52,0,3-19.06-16,0a217.84,217.84,0,0,1,9-20.75,10.53,10.53,0,0,1,14-4.48l2.58-16.49C85.06-4.61,72.2,6.41,67.24,18.77ZM52,34.88c-7.4-10.77-25,4.67-28.92-7.39-4.76,1-6.48-4.51-5.31-6.47,0,0-3.94-.64-3.47-6.26C28.56,24.37,55.17.2,52,34.88Z"/><path class="b" d="M308.19,1.61a39.19,39.19,0,0,1,8.29.9,23.13,23.13,0,0,1,7.45,3,16.86,16.86,0,0,1,5.38,5.38A15,15,0,0,1,331.39,19q0,8.07-4.71,13.22a24.11,24.11,0,0,1-12.21,7.06v.22a17.3,17.3,0,0,1,10.14,5.43q4.09,4.43,4.09,11.48A21.77,21.77,0,0,1,326.18,67a22.17,22.17,0,0,1-7,7.67,32.85,32.85,0,0,1-10.76,4.65,56.21,56.21,0,0,1-13.67,1.57h-31.6l14-79.33ZM286.79,47l-3.25,18.94h10.87a30.14,30.14,0,0,0,5.94-.56,16.73,16.73,0,0,0,5-1.79,9.37,9.37,0,0,0,3.47-3.36,9.79,9.79,0,0,0,1.29-5.15,6.94,6.94,0,0,0-2.91-5.94Q304.27,47,298.89,47Zm5.38-30.36-2.91,16.92h11.43a21,21,0,0,0,4.2-.44,12,12,0,0,0,4-1.56,9.18,9.18,0,0,0,3-3A8.69,8.69,0,0,0,313,23.86a5.85,5.85,0,0,0-3-5.57,15.63,15.63,0,0,0-7.62-1.67Z"/><path class="b" d="M391.78,37.65q0,1.72-.18,3.69a37.18,37.18,0,0,1-.55,3.81L386.86,69q-.62,3.2-.92,6.52t-.31,5.41H368.17q0-1.35.12-3.14t.37-3.38h-.25q-6.76,8-18.69,8a28.58,28.58,0,0,1-6.58-.8A18.05,18.05,0,0,1,337,78.91a14.44,14.44,0,0,1-4.49-5,15.77,15.77,0,0,1-1.72-7.69q0-7.38,3.69-12.05a24.36,24.36,0,0,1,9.65-7.26,50.3,50.3,0,0,1,13.53-3.57,117.73,117.73,0,0,1,15.19-1,8.58,8.58,0,0,0,.25-1.72V39.5a5.81,5.81,0,0,0-2.52-5.23,12.8,12.8,0,0,0-7.07-1.66,23.79,23.79,0,0,0-8.42,1.6,30.88,30.88,0,0,0-7.69,4.18l-8.12-11.31A40.85,40.85,0,0,1,352,20.25a44.73,44.73,0,0,1,14.2-2.4A42.07,42.07,0,0,1,376.41,19a23.09,23.09,0,0,1,8.05,3.63,18,18,0,0,1,5.35,6.15A18.6,18.6,0,0,1,391.78,37.65ZM370,54.13q-3.69,0-7.5.31a29.76,29.76,0,0,0-6.83,1.29,14.12,14.12,0,0,0-5,2.71,5.75,5.75,0,0,0-2,4.55q0,3.69,2.52,5a12.08,12.08,0,0,0,5.6,1.29,13.46,13.46,0,0,0,9.47-3.5,15.39,15.39,0,0,0,4.8-8.67l.61-3Z"/><path class="b" d="M425.48,90.16q-2.71,4.8-5.35,8.61a31.42,31.42,0,0,1-5.78,6.39,22.3,22.3,0,0,1-7.19,3.94,30,30,0,0,1-9.47,1.35,33.74,33.74,0,0,1-10.08-1.35l3-16.23A15.12,15.12,0,0,0,396.33,94a9.69,9.69,0,0,0,6.7-2.15,23.81,23.81,0,0,0,4.61-6.09l3-5-14.14-61H418l6.15,40.09h.25L444.66,19.7h20.91Z"/><path class="c" d="M542.33,114.84c-1.62,1.62-1.52,1.72-3.14,3.34s-1.64,1.6-3.26,3.23-1.46,1.78-3.07,3.39-1.59,1.64-3.21,3.26-1.81,1.44-3.43,3.06-1.54,1.7-3.16,3.32-1.76,1.49-3.38,3.11-1.5,1.74-3.13,3.37-1.5,1.74-3.12,3.36l-3.26,3.24c-1.63,1.63-1.68,1.57-3.31,3.2s-1.7,1.56-3.33,3.18a1.82,1.82,0,0,1-2.51.05c-1.66-1.66-1.7-1.62-3.36-3.27s-1.69-1.62-3.35-3.28-1.67-1.64-3.33-3.3-1.47-1.85-3.13-3.51-1.56-1.76-3.22-3.42l-3.32-3.32c-1.66-1.66-1.9-1.42-3.56-3.08s-1.58-1.74-3.24-3.4-1.57-1.75-3.23-3.41-1.7-1.61-3.36-3.27-1.85-1.47-3.51-3.13-1.57-1.75-3.23-3.41-1.59-1.73-3.25-3.39-1.56-1.77-3.22-3.43-1.77-1.55-3.43-3.21-1.74-1.59-3.4-3.25-1.75-1.58-3.42-3.25-1.43-1.91-3.1-3.57a3.46,3.46,0,0,1-1.18-2.36c0-2.28,0-2.28,0-4.56s.15-2.27.15-4.55,0-2.28,0-4.55,0-2.28,0-4.56-.33-2.28-.33-4.56,0-2.28,0-4.56.15-2.28.15-4.57.1-2.28.1-4.57a3.25,3.25,0,0,1,3.32-3.34c2.28,0,2.28,0,4.56,0s2.27.16,4.55.16,2.28-.17,4.55-.17,2.28-.13,4.56-.13,2.28.3,4.56.3,2.28-.15,4.56-.15,2.28-.09,4.57-.09,2.28-.07,4.57-.07a3.49,3.49,0,0,1,2.41,1.12c1.66,1.66,1.76,1.55,3.42,3.21s1.73,1.58,3.39,3.24,1.41,1.9,3.07,3.56,1.72,1.6,3.38,3.26,1.74,1.57,3.4,3.23,1.47,1.85,3.13,3.52,2,1.34,3.64,3,1.47,1.85,3.13,3.52,1.75,1.57,3.41,3.23l3.31,3.32c1.66,1.66,1.58,1.74,3.24,3.4s1.72,1.6,3.38,3.25,1.71,1.61,3.37,3.28,1.46,1.86,3.13,3.53,1.76,1.56,3.42,3.22,1.81,1.52,3.47,3.19,1.45,1.89,3.11,3.55,1.74,1.59,3.41,3.26A1.56,1.56,0,0,1,542.33,114.84Z"/><path class="d" d="M509.51,119.4c-1.58,0-3.16.21-4.72.13s-3.15-.17-4.71-.32-3.11-.55-4.66-.78-3.19-.08-4.73-.38-3-.88-4.57-1.25-3-.93-4.52-1.38-3-.87-4.51-1.39-3-1.08-4.42-1.66-3.06-.87-4.49-1.52-2.78-1.49-4.19-2.2-2.69-1.63-4.07-2.4-2.86-1.34-4.2-2.17-2.72-1.6-4-2.48-2.47-2-3.74-2.89-2.51-1.89-3.75-2.87-2.5-1.88-3.7-2.91a3.24,3.24,0,0,0,.82,1.15c1.66,1.66,1.76,1.56,3.42,3.22s1.5,1.82,3.16,3.47,1.59,1.73,3.25,3.39,2,1.36,3.62,3,1.48,1.84,3.14,3.49l3.33,3.31c1.66,1.66,1.56,1.76,3.22,3.42s1.68,1.65,3.34,3.31,1.73,1.59,3.39,3.25,1.83,1.48,3.49,3.14,1.6,1.72,3.26,3.38,1.74,1.58,3.4,3.24,1.64,1.68,3.3,3.35,1.54,1.79,3.2,3.45,1.75,1.57,3.41,3.23,1.61,1.72,3.27,3.39,1.78,1.56,3.45,3.22,1.41,1.92,3.08,3.59a1.84,1.84,0,0,0,2.53-.08c1.62-1.62,1.66-1.58,3.28-3.2s1.55-1.69,3.17-3.31,1.58-1.65,3.2-3.27,1.73-1.5,3.35-3.12,1.57-1.68,3.19-3.3,1.63-1.61,3.25-3.23,1.76-1.49,3.38-3.11,1.43-1.82,3-3.44,1.66-1.58,3.28-3.2,1.65-1.6,3.27-3.23,1.75-1.51,3.37-3.13,1.65-1.61,3.27-3.24a2.31,2.31,0,0,0,.34-1.49c-1.54.54-3.11,1-4.67,1.51s-3.11.93-4.69,1.33-3.13.89-4.72,1.21-3.21.54-4.81.79-3.22.42-4.84.59-3.24.24-4.86.33S511.13,119.4,509.51,119.4Z"/><path class="e" d="M502.25,156.38a3.66,3.66,0,0,1-2.58-1.05c-.81-.81-1.23-1.2-1.64-1.6s-.87-.83-1.72-1.68-1.23-1.21-1.64-1.6-.86-.83-1.71-1.67l-1.63-1.62-1.7-1.68a19.7,19.7,0,0,1-1.71-1.92,15.56,15.56,0,0,0-1.42-1.59c-.87-.87-1.28-1.34-1.69-1.8s-.74-.83-1.52-1.62L480,135.21a12.34,12.34,0,0,0-1.57-1.36,16.24,16.24,0,0,1-2-1.72c-.86-.86-1.27-1.32-1.69-1.77s-.76-.84-1.56-1.63-1.28-1.33-1.69-1.79-.75-.84-1.54-1.63-1.22-1.2-1.64-1.59-.87-.83-1.72-1.67a15.67,15.67,0,0,0-1.59-1.42,19.83,19.83,0,0,1-1.92-1.71c-.87-.87-1.28-1.33-1.69-1.78s-.75-.83-1.54-1.63-1.27-1.31-1.68-1.75-.77-.83-1.57-1.64-1.29-1.34-1.7-1.81-.74-.84-1.52-1.62-1.2-1.15-1.62-1.52-.93-.82-1.81-1.69-1.22-1.19-1.64-1.57-.9-.82-1.76-1.68-1.22-1.18-1.64-1.56S444,99.84,443.1,99a16.2,16.2,0,0,1-1.73-2A12.22,12.22,0,0,0,440,95.39a5.27,5.27,0,0,1-1.75-3.74c0-1.16,0-1.74,0-2.32s0-1.12,0-2.24,0-1.8.08-2.4.07-1.07.07-2.15,0-1.74,0-2.31,0-1.12,0-2.24,0-1.73,0-2.3,0-1.13,0-2.26a11.88,11.88,0,0,0-.14-2,15.6,15.6,0,0,1-.18-2.56c0-1.15,0-1.73,0-2.31s0-1.13,0-2.26,0-1.81.08-2.42.07-1.08.07-2.15,0-1.78.05-2.37,0-1.1,0-2.2a5.22,5.22,0,0,1,5.27-5.29h4.56c1.21,0,1.81,0,2.41.08s1.07.08,2.14.08,1.6,0,2.13-.08,1.21-.09,2.42-.09,1.62,0,2.17-.06,1.2-.07,2.39-.07a17,17,0,0,1,2.53.17,13.1,13.1,0,0,0,2,.13c1.08,0,1.61,0,2.15-.07s1.21-.08,2.41-.08,1.66,0,2.21,0,1.18,0,2.36,0,1.67,0,2.22,0,1.17,0,2.35,0A5.4,5.4,0,0,1,484,51.39c.79.79,1.2,1.15,1.62,1.52s.93.82,1.8,1.69,1.21,1.18,1.63,1.56.9.82,1.76,1.68a15.74,15.74,0,0,1,1.72,2,11.81,11.81,0,0,0,1.35,1.56c.8.8,1.22,1.19,1.64,1.58s.89.83,1.74,1.68,1.21,1.17,1.63,1.55.91.82,1.77,1.68a19.43,19.43,0,0,1,1.71,1.93,15.51,15.51,0,0,0,1.41,1.59,8.89,8.89,0,0,0,1.53,1.27,12.63,12.63,0,0,1,2.1,1.74,19.43,19.43,0,0,1,1.71,1.93,15.43,15.43,0,0,0,1.41,1.59c.79.79,1.21,1.17,1.63,1.55s.91.82,1.78,1.69l3.31,3.32c.86.86,1.28,1.32,1.69,1.77s.76.84,1.56,1.63,1.22,1.19,1.64,1.58.89.82,1.74,1.68,1.23,1.21,1.65,1.6.87.82,1.72,1.67A19.11,19.11,0,0,1,529,96.36a15,15,0,0,0,1.41,1.59c.79.79,1.21,1.16,1.62,1.53s.93.82,1.8,1.69,1.19,1.13,1.61,1.48,1,.82,1.86,1.71a17.51,17.51,0,0,1,1.73,2,13.43,13.43,0,0,0,1.39,1.58c.8.8,1.22,1.19,1.64,1.57s.9.83,1.77,1.69a3.5,3.5,0,0,1-.12,5.05c-.77.77-1.12,1.17-1.48,1.58s-.8.91-1.65,1.76l-1.65,1.64-1.61,1.59a18.32,18.32,0,0,0-1.41,1.55,21.46,21.46,0,0,1-1.67,1.84c-.79.79-1.18,1.2-1.57,1.6s-.81.83-1.63,1.66a19.18,19.18,0,0,1-1.88,1.68,15.27,15.27,0,0,0-1.55,1.38c-.78.78-1.15,1.18-1.52,1.59s-.8.88-1.64,1.73-1.34,1.27-1.81,1.66-.82.69-1.57,1.45-1.11,1.17-1.46,1.58-.8.93-1.66,1.79-1.11,1.16-1.46,1.57-.8.93-1.66,1.79l-3.26,3.24c-.84.84-1.27,1.24-1.7,1.64s-.82.76-1.61,1.55-1.28,1.25-1.72,1.65-.82.75-1.6,1.53a3.78,3.78,0,0,1-2.58,1.1ZM448.31,53.76h-4.56a1.31,1.31,0,0,0-1.37,1.39c0,1.19,0,1.78-.05,2.37s0,1.1,0,2.2,0,1.81-.08,2.42-.07,1.08-.07,2.15,0,1.73,0,2.3,0,1.13,0,2.26a11.88,11.88,0,0,0,.14,2,15.6,15.6,0,0,1,.18,2.56c0,1.15,0,1.73,0,2.3s0,1.13,0,2.26,0,1.74,0,2.31,0,1.12,0,2.24,0,1.8-.08,2.4-.07,1.07-.07,2.15,0,1.74,0,2.32,0,1.12,0,2.24a1.77,1.77,0,0,0,.61,1,16.15,16.15,0,0,1,1.73,2,12.22,12.22,0,0,0,1.37,1.58c.8.8,1.22,1.18,1.64,1.56s.91.82,1.78,1.69,1.22,1.18,1.63,1.56.9.83,1.77,1.69,1.2,1.15,1.62,1.52.93.82,1.81,1.69,1.29,1.34,1.7,1.81.74.84,1.52,1.62,1.27,1.31,1.68,1.75.77.83,1.57,1.64,1.28,1.33,1.69,1.78.75.83,1.54,1.63a15.85,15.85,0,0,0,1.59,1.42,19.53,19.53,0,0,1,1.92,1.72c.81.81,1.23,1.21,1.64,1.6s.87.82,1.71,1.67,1.28,1.33,1.69,1.79.75.84,1.54,1.63,1.27,1.32,1.69,1.77.76.84,1.56,1.63a12.34,12.34,0,0,0,1.57,1.36,16.24,16.24,0,0,1,2,1.72l3.32,3.32c.87.87,1.28,1.33,1.69,1.79s.74.84,1.53,1.62a19.53,19.53,0,0,1,1.71,1.92,15.6,15.6,0,0,0,1.42,1.59l1.67,1.66,1.66,1.64c.82.82,1.23,1.21,1.65,1.61s.86.82,1.7,1.66,1.23,1.21,1.65,1.61.82.77,1.57,1.52c.78-.78,1.21-1.17,1.63-1.55s.82-.75,1.6-1.53,1.27-1.24,1.7-1.64.82-.76,1.61-1.55l3.26-3.24c.76-.76,1.11-1.17,1.46-1.58s.8-.93,1.66-1.79,1.11-1.17,1.47-1.58.8-.93,1.66-1.79,1.34-1.26,1.81-1.66.82-.69,1.57-1.45,1.14-1.18,1.51-1.59.8-.89,1.65-1.73a19.18,19.18,0,0,1,1.88-1.68,15.27,15.27,0,0,0,1.55-1.38c.8-.8,1.19-1.21,1.59-1.61s.8-.83,1.62-1.65a18.21,18.21,0,0,0,1.41-1.55,21.46,21.46,0,0,1,1.67-1.84l1.64-1.62,1.62-1.61c.77-.77,1.13-1.17,1.48-1.58s.74-.84,1.48-1.59c-.62-.61-1-.95-1.35-1.28s-.9-.83-1.76-1.69a17.57,17.57,0,0,1-1.72-2,13.68,13.68,0,0,0-1.39-1.59c-.78-.78-1.2-1.13-1.62-1.49s-1-.81-1.85-1.7-1.21-1.16-1.62-1.53-.93-.82-1.8-1.69a19.05,19.05,0,0,1-1.72-1.94,15.05,15.05,0,0,0-1.41-1.59c-.81-.81-1.23-1.2-1.64-1.6s-.87-.83-1.73-1.68-1.22-1.19-1.64-1.57-.89-.82-1.75-1.68-1.27-1.32-1.69-1.77-.76-.84-1.56-1.63l-3.31-3.32c-.79-.79-1.21-1.17-1.63-1.55s-.91-.82-1.78-1.69a19.56,19.56,0,0,1-1.71-1.93,15.41,15.41,0,0,0-1.41-1.59,8.91,8.91,0,0,0-1.54-1.27,12.57,12.57,0,0,1-2.1-1.73,19.43,19.43,0,0,1-1.71-1.93,15.51,15.51,0,0,0-1.41-1.59c-.79-.79-1.21-1.17-1.63-1.55s-.91-.82-1.77-1.69-1.22-1.19-1.64-1.58-.89-.82-1.74-1.68a15.76,15.76,0,0,1-1.72-2,11.77,11.77,0,0,0-1.35-1.56c-.8-.8-1.22-1.18-1.64-1.57s-.9-.82-1.75-1.68-1.2-1.16-1.62-1.52-.93-.82-1.8-1.69a1.62,1.62,0,0,0-1-.55c-1.11,0-1.67,0-2.22,0s-1.17,0-2.35,0-1.66,0-2.21,0-1.18,0-2.36,0-1.61,0-2.15.07-1.21.08-2.41.08a17,17,0,0,1-2.53-.17,13.1,13.1,0,0,0-2-.13c-1.08,0-1.62,0-2.17.06s-1.2.07-2.39.07-1.6,0-2.13.08-1.21.09-2.42.09-1.81,0-2.41-.08S449.38,53.76,448.31,53.76Z"/><path class="c" d="M551.53,93.78c-1.92-1.35-2.06-1.14-4-2.49s-2-1.3-3.87-2.65-1.88-1.4-3.8-2.75-1.77-1.56-3.7-2.91-1.87-1.42-3.79-2.77-2.15-1-4.07-2.38-1.74-1.6-3.67-2.95-2.07-1.14-4-2.48-1.74-1.61-3.66-3-2.06-1.15-4-2.5-1.94-1.33-3.86-2.68-1.8-1.52-3.72-2.87-2.16-1-4.09-2.36-1.79-1.55-3.71-2.9-1.84-1.48-3.76-2.82-2-1.3-3.88-2.65L486.12,48c-1.93-1.35-2.14-1.05-4.07-2.4a3.17,3.17,0,0,0-2.42-.7c-2.24.4-2.28.19-4.52.59s-2.19.66-4.43,1.05-2.23.49-4.47.89-2.28.18-4.53.58l-4.49.78c-2.25.4-2.23.5-4.47.89s-2.27.29-4.52.69-2.23.53-4.48.93a3.54,3.54,0,0,0-2.39,1.44,3.52,3.52,0,0,1,2.42-.78c2.28,0,2.28-.42,4.56-.42s2.27.25,4.55.25h4.55c2.28,0,2.28.14,4.56.14s2.28,0,4.56,0,2.28-.1,4.56-.1,2.28-.24,4.57-.24,2.28.08,4.57.08a3.82,3.82,0,0,1,2.61,1c1.63,1.63,1.6,1.65,3.23,3.28s1.5,1.75,3.13,3.38,1.72,1.54,3.35,3.16,1.57,1.69,3.2,3.32,1.74,1.51,3.37,3.14,1.37,1.88,3,3.51,1.71,1.54,3.34,3.17,1.59,1.67,3.22,3.3,1.7,1.55,3.32,3.18,1.66,1.59,3.29,3.21,1.52,1.74,3.15,3.37,1.68,1.57,3.31,3.2,1.62,1.64,3.25,3.27,1.5,1.76,3.13,3.4,1.83,1.43,3.45,3.06,1.59,1.67,3.23,3.31,1.61,1.66,3.25,3.29,1,3.64,3.3,3.44,1.48-1.95,2.8-3.84,1.26-1.93,2.58-3.82l2.64-3.78c1.32-1.89,1.3-1.91,2.62-3.8A1.9,1.9,0,0,0,551.53,93.78Z"/><path class="d" d="M531.47,101.86c1,2,1.88,1.43,3.48,3s1.55,1.66,3.16,3.27.95,3.53,3.21,3.31,1.12-2.11,2.44-4,1.64-1.67,3-3.55,1.37-1.86,2.69-3.75,1.14-2,2.47-3.91a1.39,1.39,0,0,0,.15-1.52c-1.3.61-2.72.81-4,1.37s-2.59,1.25-3.94,1.76-2.65,1.16-4,1.61-2.74.91-4.12,1.31S532.87,101.51,531.47,101.86Z"/><path class="e" d="M541,113.53a3.76,3.76,0,0,1-3.62-2.73,3.81,3.81,0,0,0-.76-1.29c-.84-.84-1.24-1.25-1.66-1.68s-.79-.82-1.59-1.62-1.24-1.26-1.65-1.69-.78-.82-1.58-1.62a14.52,14.52,0,0,0-1.55-1.38,18.75,18.75,0,0,1-1.9-1.68c-.87-.87-1.27-1.34-1.67-1.82s-.7-.82-1.46-1.58l-3.25-3.27c-.79-.79-1.2-1.17-1.6-1.55s-.87-.81-1.71-1.65-1.27-1.33-1.67-1.79-.71-.82-1.48-1.59-1.21-1.19-1.61-1.58-.85-.81-1.67-1.64-1.19-1.15-1.59-1.53-.88-.81-1.73-1.65-1.24-1.26-1.65-1.69-.78-.82-1.57-1.61-1.19-1.15-1.6-1.52-.89-.81-1.74-1.66a14.69,14.69,0,0,1-1.7-2,10.89,10.89,0,0,0-1.3-1.53c-.77-.77-1.18-1.12-1.58-1.48s-.92-.8-1.78-1.66-1.25-1.28-1.65-1.71-.76-.82-1.55-1.6-1.18-1.14-1.59-1.5-.9-.81-1.75-1.66-1.26-1.33-1.66-1.8-.7-.82-1.46-1.58-1.22-1.23-1.62-1.65-.79-.82-1.61-1.63a1.92,1.92,0,0,0-1.23-.4c-1.18,0-1.77,0-2.36,0s-1.11,0-2.21,0a16.88,16.88,0,0,0-2.08.11,20.33,20.33,0,0,1-2.49.13c-1.1,0-1.64,0-2.19,0s-1.18.05-2.37.05H462c-1.2,0-1.8,0-2.4-.08s-1.08-.07-2.16-.07h-4.55a19.91,19.91,0,0,1-2.49-.14,16,16,0,0,0-2.06-.11,8.85,8.85,0,0,0-1.92.18,12.61,12.61,0,0,1-2.63.24,1.74,1.74,0,0,0-1.09.26,1.95,1.95,0,0,1-3-2.49,5.48,5.48,0,0,1,3.69-2.3c1.07-.19,1.59-.32,2.12-.44s1.17-.28,2.35-.49,1.76-.28,2.35-.36,1.09-.14,2.17-.33,1.62-.31,2.15-.43,1.16-.26,2.32-.46l4.49-.78a22.32,22.32,0,0,1,2.45-.31,19,19,0,0,0,2.08-.27c1.08-.19,1.62-.31,2.15-.43s1.15-.25,2.32-.46a14.84,14.84,0,0,0,2-.47,18.86,18.86,0,0,1,2.44-.58,23.44,23.44,0,0,1,2.44-.32,20,20,0,0,0,2.09-.27,5.17,5.17,0,0,1,3.88,1A11.25,11.25,0,0,0,485,45a15.24,15.24,0,0,1,2.29,1.35l3.85,2.71c.94.66,1.42,1,1.9,1.3s1,.66,2,1.35,1.5,1.1,2,1.49.87.7,1.78,1.34a21.69,21.69,0,0,1,2,1.57,17.85,17.85,0,0,0,1.7,1.32,9.76,9.76,0,0,0,1.75,1,13.57,13.57,0,0,1,2.34,1.35,23.92,23.92,0,0,1,2,1.54,20.09,20.09,0,0,0,1.72,1.32L512.17,64l2,1.36a17.84,17.84,0,0,0,1.82,1.14,21.4,21.4,0,0,1,2.17,1.36,16.84,16.84,0,0,1,2,1.65,12.93,12.93,0,0,0,1.62,1.31,16.77,16.77,0,0,0,1.82,1.13,20.59,20.59,0,0,1,2.18,1.35,17.33,17.33,0,0,1,2,1.64,13.34,13.34,0,0,0,1.63,1.31,10.56,10.56,0,0,0,1.76,1,14.25,14.25,0,0,1,2.31,1.35c1,.7,1.48,1.07,2,1.43s.9.69,1.83,1.34a19.85,19.85,0,0,1,2,1.59A16,16,0,0,0,541,84.3c1,.69,1.47,1,1.95,1.41s.92.68,1.85,1.34,1.42,1,1.9,1.3,1,.66,2,1.35a17.26,17.26,0,0,0,1.82,1.13,21.18,21.18,0,0,1,2.17,1.35,3.85,3.85,0,0,1,.92,5.26c-.65.93-1,1.41-1.29,1.88s-.66,1-1.33,1.92L548.3,105c-.64.92-.95,1.39-1.25,1.86s-.65,1-1.33,2a4.37,4.37,0,0,0-.58,1.39,3.85,3.85,0,0,1-3.65,3.27Zm-.08-3.9h0ZM475.66,49.57c1.18,0,1.77,0,2.36,0s1.11,0,2.21,0a5.71,5.71,0,0,1,4,1.54c.83.83,1.24,1.25,1.65,1.67s.79.81,1.58,1.61,1.27,1.33,1.67,1.8.7.82,1.46,1.58,1.19,1.14,1.6,1.51.9.8,1.75,1.65,1.24,1.27,1.65,1.71.76.82,1.55,1.61,1.18,1.12,1.58,1.48.92.8,1.78,1.66a14.69,14.69,0,0,1,1.7,2,10.89,10.89,0,0,0,1.3,1.53c.78.78,1.19,1.15,1.6,1.52s.89.81,1.74,1.66,1.23,1.25,1.64,1.68.78.82,1.58,1.62,1.19,1.16,1.6,1.53.88.8,1.72,1.64,1.21,1.19,1.61,1.58.85.81,1.67,1.64,1.26,1.32,1.66,1.79.71.82,1.48,1.59,1.2,1.17,1.61,1.56.86.81,1.7,1.64l3.25,3.27c.87.87,1.27,1.34,1.67,1.82s.7.82,1.46,1.58A14.61,14.61,0,0,0,531,98.46a18.58,18.58,0,0,1,1.9,1.69c.83.83,1.24,1.26,1.65,1.69s.78.82,1.58,1.62,1.23,1.24,1.63,1.65.8.82,1.62,1.64a7.39,7.39,0,0,1,1.59,2.52l.16.36h.11l.14-.45a8,8,0,0,1,1.13-2.55c.64-.92.95-1.39,1.25-1.86s.65-1,1.33-2L547.75,99c.65-.93,1-1.41,1.29-1.88s.63-.93,1.26-1.83a17.08,17.08,0,0,0-1.71-1.06,21.18,21.18,0,0,1-2.17-1.35c-.94-.66-1.42-1-1.9-1.3s-1-.66-2-1.35-1.47-1-1.95-1.41-.92-.68-1.85-1.34a19.85,19.85,0,0,1-2-1.59,16,16,0,0,0-1.68-1.32c-1-.69-1.47-1.06-2-1.43s-.9-.69-1.83-1.34a10.55,10.55,0,0,0-1.76-1,14.28,14.28,0,0,1-2.31-1.35,17.2,17.2,0,0,1-2-1.63,13.33,13.33,0,0,0-1.63-1.31,17.06,17.06,0,0,0-1.82-1.13A20.45,20.45,0,0,1,519.53,74a16.84,16.84,0,0,1-2-1.65A12.93,12.93,0,0,0,515.87,71,18.06,18.06,0,0,0,514,69.91a21.52,21.52,0,0,1-2.16-1.35L510,67.22,508,65.88a23.92,23.92,0,0,1-2-1.54A20.09,20.09,0,0,0,504.3,63a9.73,9.73,0,0,0-1.75-1,13.57,13.57,0,0,1-2.34-1.35,21.69,21.69,0,0,1-2-1.57,17.85,17.85,0,0,0-1.7-1.32c-1-.71-1.5-1.1-2-1.49s-.87-.7-1.78-1.33-1.42-1-1.9-1.3-1-.66-2-1.35L485,49.57a11.29,11.29,0,0,0-1.78-1,15.24,15.24,0,0,1-2.29-1.35c-.63-.44-.86-.4-1-.38a23.44,23.44,0,0,1-2.44.32,20,20,0,0,0-2.09.27,15.05,15.05,0,0,0-2,.47,18.71,18.71,0,0,1-2.44.58c-1.08.19-1.62.31-2.16.43s-1.15.25-2.31.46a22.32,22.32,0,0,1-2.45.31,19,19,0,0,0-2.08.27l-.27,0h4.78c1.1,0,1.65,0,2.2,0s1.18-.05,2.37-.05a16.88,16.88,0,0,0,2.08-.11A20.33,20.33,0,0,1,475.66,49.57Zm74.71,45.64Z"/><path class="c" d="M441.3,94.1a3.55,3.55,0,0,1-1.09-2.45c0-2.28-.09-2.28-.09-4.56s.34-2.27.34-4.55-.32-2.28-.32-4.55.21-2.28.21-4.56-.09-2.28-.09-4.56-.18-2.28-.18-4.56.06-2.28.06-4.57,0-2.28,0-4.57a3.17,3.17,0,0,1,1-2.2,3,3,0,0,0-1.31,2.17c-.4,2.24-.59,2.21-1,4.45s-.32,2.25-.72,4.49-.45,2.23-.84,4.48-.22,2.28-.61,4.52-.59,2.21-1,4.46-.31,2.26-.7,4.51-.49,2.23-.89,4.48-.2,2.28-.59,4.54a3.39,3.39,0,0,0,.36,2.59c1.35,1.92,1.47,1.83,2.82,3.75s1.28,2,2.62,3.89,1.18,2,2.52,4,1.69,1.68,3,3.61,1.1,2.09,2.45,4,1.56,1.77,2.91,3.7,1.28,2,2.62,3.89,1.37,1.91,2.72,3.83,1.3,2,2.64,3.88,1.14,2.07,2.48,4,1.48,1.83,2.83,3.75,1.2,2,2.54,3.95,1.56,1.78,2.9,3.7,1.49,1.82,2.84,3.75,1.33,1.94,2.68,3.87,1,2.16,2.37,4.08,1.45,1.86,2.81,3.79,1.52,1.81,2.87,3.74a1.47,1.47,0,0,0,2.19.36c1.89-1.32,1.93-1.26,3.82-2.58s2.06-1.08,3.94-2.4,1.91-1.3,3.8-2.62,3.6-.52,3.81-2.82-1.93-1.5-3.56-3.12-1.59-1.66-3.22-3.28-1.52-1.74-3.14-3.36-1.69-1.57-3.32-3.2-1.44-1.82-3.06-3.44-1.89-1.36-3.52-3-1.44-1.81-3.07-3.44-1.56-1.7-3.19-3.33-1.69-1.56-3.31-3.19-1.66-1.59-3.28-3.22-1.71-1.55-3.34-3.18-1.64-1.61-3.27-3.24-1.6-1.66-3.23-3.29l-3.27-3.25c-1.63-1.63-1.64-1.62-3.27-3.24s-1.41-1.86-3-3.49-1.9-1.37-3.54-3S442.94,95.73,441.3,94.1Z"/><path class="d" d="M447,107.38c-1.06-1-1.9-2.15-2.89-3.17s-1.89-2.13-2.83-3.2-2.15-1.93-3-3-1.49-2.45-2.31-3.62-1.83-2.2-2.59-3.4l-.18.07a3.69,3.69,0,0,0,.81,2.61c1.35,1.92,1.37,1.91,2.71,3.83s1.17,2,2.51,4,1.68,1.68,3,3.61,1.15,2.06,2.5,4,1.22,2,2.56,3.93,1.39,1.89,2.74,3.82,1.34,1.93,2.68,3.85,1.65,1.72,3,3.64,1.2,2,2.55,3.95,1.18,2,2.53,4,1.56,1.77,2.91,3.7,1.43,1.87,2.77,3.79,1.17,2,2.52,4,1.34,1.93,2.69,3.86,1.43,1.87,2.78,3.79,1.26,2,2.61,3.91,1.47,1.85,2.82,3.78,1.17,2.06,2.52,4a2,2,0,0,0,2.59.53c1.89-1.32,1.64-1.67,3.53-3s2-1.12,3.92-2.44l3.77-2.66c1.89-1.32,3.78-.34,3.93-2.65s-1.76-1.8-3.45-3.49-1.76-1.62-3.46-3.31-1.87-1.52-3.56-3.22-1.64-1.76-3.33-3.45-1.78-1.61-3.47-3.31-1.67-1.72-3.37-3.42-1.57-1.83-3.28-3.53a45,45,0,0,0-3.49-3.3c-1.33-.7-2.59-1.49-3.89-2.24s-2.68-1.4-4-2.21-2.34-1.94-3.58-2.79-2.54-1.63-3.75-2.53-2.37-1.86-3.55-2.8-2.4-1.82-3.55-2.81S448.09,108.4,447,107.38Z"/><path class="f" d="M436,73.24a19,19,0,0,1-3.66-2.75,18.89,18.89,0,0,1-2.63-3.71,18.29,18.29,0,0,1-2-4.07,18.44,18.44,0,0,1-1.07-4.42,19.75,19.75,0,0,1-.27-4.64A19,19,0,0,1,428,49a19.73,19.73,0,0,1,2.43-4.33A20.18,20.18,0,0,1,434,41.26a19.7,19.7,0,0,1,4.48-2.07,18.88,18.88,0,0,1,4.7-1.44,34.08,34.08,0,0,1,9.19,1c1.43.55,2.47,1.91,3.72,2.78a18.92,18.92,0,0,1,3.54,2.83,18.92,18.92,0,0,1,2.49,3.8,18.77,18.77,0,0,1,1.8,4.19,19.2,19.2,0,0,1,.65,4.54,18.9,18.9,0,0,1-1,5.07,18.82,18.82,0,0,1-1.9,4.77,19,19,0,0,1-3.28,4,20.31,20.31,0,0,1-4.53,2.78A8.35,8.35,0,0,0,456,76.88a6.62,6.62,0,0,0,2.93,2.06,25.77,25.77,0,0,0,3.58-2.55,26.6,26.6,0,0,0,3.33-3,26.57,26.57,0,0,0,2.56-3.67,26.47,26.47,0,0,0,1.71-4.13,26.15,26.15,0,0,0,1.11-4.31,26.44,26.44,0,0,0,.31-4.44,25.28,25.28,0,0,0-.75-4.87,25.52,25.52,0,0,0-1.27-4.74,26.23,26.23,0,0,0-2.23-4.39,26.87,26.87,0,0,0-3-3.94,26.83,26.83,0,0,0-3.83-3.11,26.22,26.22,0,0,0-4.19-2.59c-1.47-.68-3.19-.69-4.79-1.09s-3.08-1.49-4.74-1.56a26.55,26.55,0,0,0-4.67.58,26.75,26.75,0,0,0-4.66.67c-1.49.48-2.68,1.7-4,2.43a25.66,25.66,0,0,0-3.94,2.41,26.19,26.19,0,0,0-3.5,3.07c-1,1.16-1.39,2.78-2.19,4.11s-2.15,2.37-2.7,3.83a26.32,26.32,0,0,0-1.36,4.5,27.16,27.16,0,0,0,0,4.69,25.46,25.46,0,0,0,.74,4.73c.3,1.6,0,3.38.54,4.86a26.54,26.54,0,0,0,2.5,4.19,26,26,0,0,0,3.21,3.6,25.46,25.46,0,0,0,3.59,3.13,26,26,0,0,0,3.86,2.9c.51.25.92-.29,1-.85.47-2.68.34-2.7.82-5.38C436,73.73,436.27,73.42,436,73.24Z"/><path class="g" d="M467.61,72.4A6.22,6.22,0,0,1,465.56,77a6.15,6.15,0,0,1-4.58,2c-1.9,0-3.82-.22-5.07-1.47a7.36,7.36,0,0,1-2-5.07,7.51,7.51,0,0,1,1.94-5.16A7.62,7.62,0,0,1,461,65.17a7.09,7.09,0,0,1,4.78,2.45A6.52,6.52,0,0,1,467.61,72.4Z"/><path class="e" d="M461,80.89c-2.05,0-4.64-.23-6.45-2a9.28,9.28,0,0,1-2.61-6.45,9.38,9.38,0,0,1,2.51-6.54A9.54,9.54,0,0,1,461,63.23c2.11,0,4.13,1,6.16,3a8.49,8.49,0,0,1,2.42,6.16A8.82,8.82,0,0,1,461,80.89Zm0-13.77a5.68,5.68,0,0,0-3.79,1.49,5.58,5.58,0,0,0-1.37,3.79,5.46,5.46,0,0,0,1.46,3.69c.62.62,1.76.9,3.69.9a4.2,4.2,0,0,0,3.2-1.39,4.27,4.27,0,0,0,1.48-3.2,4.56,4.56,0,0,0-1.27-3.4A5.21,5.21,0,0,0,461,67.12Z"/><path class="h" d="M427,53.75c-1.07-.52-2.31-1.09-3.36-1.64s-2.45-1.31-3.49-1.9a28.33,28.33,0,0,0-.68,6.69,25.72,25.72,0,0,0,.84,4.74c.3,1.6.19,3.31.77,4.79a26.62,26.62,0,0,0,2.09,4.42,26.64,26.64,0,0,0,3.16,3.72,26.24,26.24,0,0,0,3.88,2.87c1.28,1,2.34,2.33,3.79,3a1.5,1.5,0,0,0,1.66-.91c.47-2.68.3-2.71.77-5.38.06-.35-.43-.36-.74-.54a19.6,19.6,0,0,1-3.4-3.13,18.82,18.82,0,0,1-2.49-3.77c-.8-1.28-2-2.36-2.49-3.82a19.16,19.16,0,0,1-.74-4.51A21,21,0,0,1,427,53.75Z"/><path class="h" d="M462.93,63.45a20,20,0,0,1-2.28,4A18.61,18.61,0,0,1,457.88,71a20.46,20.46,0,0,1-4.08,2.45,8.75,8.75,0,0,0,2,3.55,8.23,8.23,0,0,0,3.2,2.4,28.4,28.4,0,0,0,3.86-3.23,26.23,26.23,0,0,0,2.91-3.84,25.63,25.63,0,0,0,2.78-3.9,22.49,22.49,0,0,0,1.37-4.26c-1.21,0-2-.6-3.17-.65S464.12,63.54,462.93,63.45Z"/><path class="e" d="M434.36,82.33a2.53,2.53,0,0,1-1.11-.26,14.17,14.17,0,0,1-3-2.13c-.39-.33-.77-.66-1.18-1a27,27,0,0,1-3.86-3.37c-.3-.33-.62-.64-.93-1a16.87,16.87,0,0,1-2.49-2.92c-.23-.36-.47-.73-.72-1.09a17.63,17.63,0,0,1-2-3.43,10,10,0,0,1-.52-3.51,11.17,11.17,0,0,0-.12-1.71c-.07-.38-.15-.75-.23-1.13a18.54,18.54,0,0,1-.54-4c0-.5,0-1-.07-1.51a14.37,14.37,0,0,1,.07-3.53A28.25,28.25,0,0,1,419.18,47a9.85,9.85,0,0,1,1.88-2.87,10.59,10.59,0,0,0,1-1.27,12.72,12.72,0,0,0,.7-1.44,10.94,10.94,0,0,1,1.7-3,23,23,0,0,1,3.21-2.87l.55-.43a25.89,25.89,0,0,1,4-2.49l.21-.11a12.86,12.86,0,0,0,1.33-.87,11.22,11.22,0,0,1,3-1.69,16.39,16.39,0,0,1,3.64-.61c.46,0,.91-.08,1.36-.14s.89-.14,1.34-.22a16.07,16.07,0,0,1,3.68-.37,9.89,9.89,0,0,1,3.54,1,10.55,10.55,0,0,0,1.57.6c.52.13,1.06.21,1.6.29a12.94,12.94,0,0,1,3.55.92,28,28,0,0,1,4.51,2.78l.17.13a27.19,27.19,0,0,1,3.93,3.22,29,29,0,0,1,3.21,4.22,28,28,0,0,1,2.4,4.72,27.12,27.12,0,0,1,1.38,5.1l.2,1a20.11,20.11,0,0,1,.59,4.26,26.14,26.14,0,0,1-1.53,9.4l-.09.26a26.18,26.18,0,0,1-1.76,4.17,28.13,28.13,0,0,1-2.75,3.94A15.91,15.91,0,0,1,464.78,77c-.34.28-.69.55-1,.83a27.13,27.13,0,0,1-3.85,2.75,2,2,0,0,1-1.6.2,8.4,8.4,0,0,1-3.81-2.63A9.77,9.77,0,0,1,452,73.89a2,2,0,0,1,1-2.12l.66-.34a15.6,15.6,0,0,0,3.44-2.14A17.07,17.07,0,0,0,460,65.73a17,17,0,0,0,1.69-4.29l.19-.68a14.36,14.36,0,0,0,.75-3.87,17.6,17.6,0,0,0-.59-4.08,16.25,16.25,0,0,0-1.53-3.56l-.1-.18a17.3,17.3,0,0,0-2.22-3.42,14.76,14.76,0,0,0-2.73-2.2l-.46-.32a16,16,0,0,1-1.51-1.24,6.71,6.71,0,0,0-1.79-1.31,13.36,13.36,0,0,0-3.19-.6l-.92-.11a18,18,0,0,0-4.16-.18,15.83,15.83,0,0,0-3.85,1.17l-1.28.49a13.37,13.37,0,0,0-3.13,1.48,18.23,18.23,0,0,0-3.3,3,18.13,18.13,0,0,0-2.17,3.9A17.29,17.29,0,0,0,428.29,54a9.54,9.54,0,0,0,.12,2.68c.07.51.14,1,.17,1.51a15.77,15.77,0,0,0,.9,3.72l.08.24a16.29,16.29,0,0,0,1.75,3.64l.45.73a13.14,13.14,0,0,0,1.89,2.62,17.1,17.1,0,0,0,3.28,2.46,2.27,2.27,0,0,1,.92,2.89c-.23,1.27-.32,1.92-.4,2.58s-.18,1.4-.42,2.78a3.1,3.1,0,0,1-1.56,2.25A2.46,2.46,0,0,1,434.36,82.33Zm12-49.78a14.63,14.63,0,0,0-2.54.32c-.51.09-1,.18-1.53.25s-1,.11-1.52.16a13.37,13.37,0,0,0-2.79.44,8.08,8.08,0,0,0-2,1.16A16.88,16.88,0,0,1,434.27,36l-.21.11a22.67,22.67,0,0,0-3.44,2.11l-.57.45A19.79,19.79,0,0,0,427.37,41,7.77,7.77,0,0,0,426.31,43a16.16,16.16,0,0,1-.93,1.88A13.5,13.5,0,0,1,424,46.66a6.79,6.79,0,0,0-1.21,1.73,24.62,24.62,0,0,0-1.27,4.16,11.39,11.39,0,0,0,0,2.59c0,.59.07,1.17.07,1.76a15.38,15.38,0,0,0,.45,3.15c.09.41.17.81.25,1.22a14.12,14.12,0,0,1,.19,2.34,7,7,0,0,0,.25,2.17,14.51,14.51,0,0,0,1.55,2.67c.27.4.54.8.79,1.2a13.69,13.69,0,0,0,1.95,2.24c.35.35.7.7,1,1.07a23.3,23.3,0,0,0,3.32,2.89c.48.35.93.74,1.39,1.13l.66.56c.06-.39.1-.7.14-1,.08-.6.15-1.21.33-2.25a20.43,20.43,0,0,1-3-2.38,16.25,16.25,0,0,1-2.5-3.38l-.43-.69a20.07,20.07,0,0,1-2.16-4.5l-.08-.23a19,19,0,0,1-1.09-4.65c0-.42-.09-.84-.15-1.28a12.78,12.78,0,0,1-.11-3.82,20.67,20.67,0,0,1,1.75-5.18,21.31,21.31,0,0,1,2.7-4.75,21.85,21.85,0,0,1,4-3.71,16.65,16.65,0,0,1,4.05-2l1.22-.47A19,19,0,0,1,443,35.82a21.28,21.28,0,0,1,5.07.19l.87.1a16.41,16.41,0,0,1,4.16.83,9.76,9.76,0,0,1,3,2.05,12,12,0,0,0,1.13.94l.45.31a17.91,17.91,0,0,1,3.44,2.83,20.85,20.85,0,0,1,2.75,4.19l.1.18a19.43,19.43,0,0,1,1.87,4.44,21.18,21.18,0,0,1,.7,5,17.76,17.76,0,0,1-.9,4.94l-.19.65a20.81,20.81,0,0,1-2.12,5.26,21,21,0,0,1-3.61,4.39,15.27,15.27,0,0,1-3.3,2.23,15.32,15.32,0,0,0,1,1.21,5.9,5.9,0,0,0,1.32,1.15,20.93,20.93,0,0,0,2.46-1.82c.37-.32.75-.63,1.14-.94a12.9,12.9,0,0,0,2-1.78,24.26,24.26,0,0,0,2.38-3.4,23.26,23.26,0,0,0,1.48-3.56l.09-.26a22.29,22.29,0,0,0,1.31-8.1,17,17,0,0,0-.5-3.45l-.22-1A24,24,0,0,0,467.67,48,24.3,24.3,0,0,0,465.62,44a25.41,25.41,0,0,0-2.76-3.65,23.89,23.89,0,0,0-3.38-2.75l-.18-.13A24.59,24.59,0,0,0,455.43,35a9.71,9.71,0,0,0-2.51-.6c-.65-.1-1.3-.2-1.93-.36a13.63,13.63,0,0,1-2.2-.81,6.81,6.81,0,0,0-2.16-.7ZM435,74.92h0Z"/><path class="e" d="M483.77,165.46a3.41,3.41,0,0,1-2.81-1.53,21.54,21.54,0,0,0-1.33-1.73,25,25,0,0,1-1.54-2c-.64-.92-1-1.36-1.34-1.81s-.76-1-1.47-2a14,14,0,0,1-1.35-2.33,10,10,0,0,0-1-1.76c-.68-1-1-1.46-1.35-2s-.66-1-1.33-1.92-1-1.33-1.33-1.76-.79-1-1.51-2a17,17,0,0,0-1.32-1.68,20.61,20.61,0,0,1-1.58-2c-.72-1-1-1.56-1.35-2.1s-.56-.95-1.19-1.85-1-1.34-1.33-1.77-.78-1-1.5-2a20.55,20.55,0,0,1-1.35-2.18,16.64,16.64,0,0,0-1.13-1.82c-.69-1-1-1.48-1.35-2s-.63-1-1.29-1.9-1-1.43-1.35-1.9-.69-1-1.37-1.93-1-1.5-1.35-2-.62-1-1.27-1.89a16,16,0,0,0-1.32-1.67,19.87,19.87,0,0,1-1.59-2,17.8,17.8,0,0,1-1.35-2.22,13.84,13.84,0,0,0-1.09-1.8,9.52,9.52,0,0,0-1.3-1.54,13.36,13.36,0,0,1-1.74-2.07,25.09,25.09,0,0,1-1.35-2.12,21.67,21.67,0,0,0-1.17-1.84c-.69-1-1-1.5-1.35-2s-.62-1-1.27-1.88-1-1.34-1.33-1.77-.78-1-1.49-2a5.18,5.18,0,0,1-.69-4,20.07,20.07,0,0,0,.27-2.09,24,24,0,0,1,.32-2.44c.21-1.17.33-1.75.46-2.33s.24-1.08.43-2.16.27-1.63.34-2.18.16-1.17.36-2.33.37-1.8.53-2.39.27-1,.46-2.07.24-1.58.29-2.11.12-1.21.33-2.41.32-1.71.43-2.28.22-1.1.41-2.2.27-1.63.35-2.18.17-1.16.37-2.31a24.28,24.28,0,0,1,.53-2.39,20.73,20.73,0,0,0,.46-2.06,4.88,4.88,0,0,1,2.17-3.47,1.95,1.95,0,0,1,2.49,3c-.45.48-.49.7-.49.87v4.57c0,1.17,0,1.75,0,2.34s0,1.11,0,2.23,0,1.59.08,2.12.1,1.22.1,2.44,0,1.65,0,2.21,0,1.18,0,2.35a23.11,23.11,0,0,1-.11,2.46,19.59,19.59,0,0,0-.1,2.1,12.24,12.24,0,0,0,.14,2,16.28,16.28,0,0,1,.18,2.55,15.27,15.27,0,0,1-.19,2.56,11.44,11.44,0,0,0-.15,2c0,1.1,0,1.65,0,2.2s0,1.18,0,2.36a1.63,1.63,0,0,0,.52,1.07c.85.85,1.25,1.3,1.65,1.75s.74.82,1.53,1.61a10.67,10.67,0,0,0,1.53,1.3,14.28,14.28,0,0,1,2,1.71,16.3,16.3,0,0,1,1.7,1.95,12.5,12.5,0,0,0,1.34,1.54l6.54,6.5c.83.83,1.23,1.25,1.64,1.67s.78.82,1.58,1.62l1.61,1.6,1.66,1.64c.78.78,1.19,1.15,1.6,1.52s.89.81,1.74,1.66,1.21,1.19,1.61,1.58.84.81,1.67,1.64,1.19,1.16,1.6,1.54.87.81,1.71,1.64,1.25,1.29,1.66,1.73.75.82,1.53,1.6a19.67,19.67,0,0,1,1.68,1.88,15.93,15.93,0,0,0,1.39,1.56,10.45,10.45,0,0,0,1.52,1.29,14.17,14.17,0,0,1,2,1.7,18.93,18.93,0,0,1,1.68,1.89,15,15,0,0,0,1.38,1.55c.79.79,1.2,1.17,1.61,1.55s.87.81,1.71,1.65,1.26,1.32,1.66,1.78.71.82,1.48,1.58,1.23,1.25,1.64,1.67.78.81,1.58,1.61a3.25,3.25,0,0,0,1.29.68c1,.36,3.09,1.12,2.83,4a3.88,3.88,0,0,1-3.25,3.66,4.45,4.45,0,0,0-1.39.59l-1.93,1.33-1.87,1.29a17.49,17.49,0,0,1-2.19,1.33,13.47,13.47,0,0,0-1.76,1.07c-1,.68-1.47,1-2,1.33s-.94.61-1.85,1.25A3.66,3.66,0,0,1,483.77,165.46Zm-45.4-90.81c-.1.47-.2.82-.29,1.17-.14.51-.27,1-.46,2.07s-.27,1.63-.34,2.18-.16,1.17-.36,2.33-.33,1.74-.46,2.32-.24,1.08-.43,2.16a20.08,20.08,0,0,0-.27,2.1,24,24,0,0,1-.32,2.44c-.13.75,0,1,0,1.13.64.91,1,1.34,1.33,1.77s.78,1,1.49,2,1,1.49,1.34,2,.62,1,1.28,1.89a25.09,25.09,0,0,1,1.35,2.12,21.67,21.67,0,0,0,1.17,1.84,9.52,9.52,0,0,0,1.3,1.54,13.44,13.44,0,0,1,1.74,2.07,17.85,17.85,0,0,1,1.35,2.22,14,14,0,0,0,1.09,1.8,15.84,15.84,0,0,0,1.32,1.68,19.82,19.82,0,0,1,1.59,2c.69,1,1,1.5,1.35,2s.62,1,1.27,1.89,1,1.43,1.35,1.9.69,1,1.37,1.93,1,1.49,1.35,2,.63,1,1.29,1.9a20.23,20.23,0,0,1,1.35,2.18,17,17,0,0,0,1.13,1.82c.63.91,1,1.34,1.33,1.77s.78,1,1.5,2,1,1.56,1.35,2.1.56.95,1.19,1.85a17,17,0,0,0,1.32,1.68,20.76,20.76,0,0,1,1.58,2c.63.91,1,1.33,1.33,1.76s.79,1,1.51,2,1,1.46,1.35,2,.66,1,1.33,1.92a13.92,13.92,0,0,1,1.35,2.33,10.19,10.19,0,0,0,1,1.76c.65.92,1,1.37,1.34,1.81s.76,1,1.46,2a21.46,21.46,0,0,0,1.33,1.74c.36.43.72.86,1.31,1.68.78-.54,1.22-.83,1.66-1.12s.94-.61,1.86-1.26a17.37,17.37,0,0,1,2.19-1.33,13.5,13.5,0,0,0,1.76-1.07l1.92-1.32,1.88-1.3a8.05,8.05,0,0,1,2.52-1.13l.45-.14h0l-.26-.1a6.91,6.91,0,0,1-2.72-1.59c-.82-.82-1.23-1.25-1.63-1.67s-.78-.82-1.59-1.62-1.26-1.32-1.66-1.78-.71-.82-1.48-1.58-1.2-1.17-1.61-1.55-.87-.81-1.71-1.65a18.93,18.93,0,0,1-1.68-1.89,15,15,0,0,0-1.38-1.55,10.4,10.4,0,0,0-1.52-1.29,14.17,14.17,0,0,1-2-1.7,19.58,19.58,0,0,1-1.68-1.88,15.93,15.93,0,0,0-1.39-1.56c-.84-.84-1.25-1.29-1.65-1.73s-.75-.82-1.54-1.61-1.19-1.16-1.6-1.54-.87-.81-1.71-1.64-1.21-1.19-1.61-1.58-.84-.81-1.67-1.64-1.19-1.15-1.6-1.52-.89-.81-1.74-1.66l-1.63-1.61-1.64-1.62c-.83-.83-1.23-1.25-1.64-1.68s-.78-.82-1.58-1.62l-6.54-6.5a16.3,16.3,0,0,1-1.7-1.95,12.5,12.5,0,0,0-1.34-1.54,10.53,10.53,0,0,0-1.53-1.3,14.59,14.59,0,0,1-2-1.7c-.87-.86-1.27-1.31-1.68-1.77s-.73-.82-1.51-1.59h0a5.49,5.49,0,0,1-1.66-3.83c0-1.1,0-1.65,0-2.2s0-1.18,0-2.36a15.27,15.27,0,0,1,.19-2.56,11.44,11.44,0,0,0,.15-2,12.24,12.24,0,0,0-.14-2,16.28,16.28,0,0,1-.18-2.55,23.11,23.11,0,0,1,.11-2.46C438.33,75.26,438.35,75,438.37,74.65Z"/><path class="e" d="M434.36,82.33a2.53,2.53,0,0,1-1.11-.26,14.17,14.17,0,0,1-3-2.13c-.39-.33-.77-.66-1.18-1a27,27,0,0,1-3.86-3.37c-.3-.33-.62-.64-.93-1a16.87,16.87,0,0,1-2.49-2.92c-.23-.36-.47-.73-.72-1.09a17.63,17.63,0,0,1-2-3.43,10,10,0,0,1-.52-3.51,11.17,11.17,0,0,0-.12-1.71c-.07-.38-.15-.75-.23-1.13a18.54,18.54,0,0,1-.54-4c0-.5,0-1-.07-1.51a14.37,14.37,0,0,1,.07-3.53A28.25,28.25,0,0,1,419.18,47a9.85,9.85,0,0,1,1.88-2.87,10.59,10.59,0,0,0,1-1.27,12.72,12.72,0,0,0,.7-1.44,10.94,10.94,0,0,1,1.7-3,23,23,0,0,1,3.21-2.87l.55-.43a25.89,25.89,0,0,1,4-2.49l.21-.11a12.86,12.86,0,0,0,1.33-.87,11.22,11.22,0,0,1,3-1.69,16.39,16.39,0,0,1,3.64-.61c.46,0,.91-.08,1.36-.14s.89-.14,1.34-.22a16.07,16.07,0,0,1,3.68-.37,9.89,9.89,0,0,1,3.54,1,10.55,10.55,0,0,0,1.57.6c.52.13,1.06.21,1.6.29a12.94,12.94,0,0,1,3.55.92,28,28,0,0,1,4.51,2.78l.17.13a27.19,27.19,0,0,1,3.93,3.22,29,29,0,0,1,3.21,4.22,28,28,0,0,1,2.4,4.72,27.12,27.12,0,0,1,1.38,5.1l.2,1a20.11,20.11,0,0,1,.59,4.26,26.14,26.14,0,0,1-1.53,9.4l-.09.26a26.18,26.18,0,0,1-1.76,4.17,28.13,28.13,0,0,1-2.75,3.94A15.91,15.91,0,0,1,464.78,77c-.34.28-.69.55-1,.83a27.13,27.13,0,0,1-3.85,2.75,2,2,0,0,1-1.6.2,8.4,8.4,0,0,1-3.81-2.63A9.77,9.77,0,0,1,452,73.89a2,2,0,0,1,1-2.12l.66-.34a15.6,15.6,0,0,0,3.44-2.14A17.07,17.07,0,0,0,460,65.73a17,17,0,0,0,1.69-4.29l.19-.68a14.36,14.36,0,0,0,.75-3.87,17.6,17.6,0,0,0-.59-4.08,16.25,16.25,0,0,0-1.53-3.56l-.1-.18a17.3,17.3,0,0,0-2.22-3.42,14.76,14.76,0,0,0-2.73-2.2l-.46-.32a16,16,0,0,1-1.51-1.24,6.71,6.71,0,0,0-1.79-1.31,13.36,13.36,0,0,0-3.19-.6l-.92-.11a18,18,0,0,0-4.16-.18,15.83,15.83,0,0,0-3.85,1.17l-1.28.49a13.37,13.37,0,0,0-3.13,1.48,18.23,18.23,0,0,0-3.3,3,18.13,18.13,0,0,0-2.17,3.9A17.29,17.29,0,0,0,428.29,54a9.54,9.54,0,0,0,.12,2.68c.07.51.14,1,.17,1.51a15.77,15.77,0,0,0,.9,3.72l.08.24a16.29,16.29,0,0,0,1.75,3.64l.45.73a13.14,13.14,0,0,0,1.89,2.62,17.1,17.1,0,0,0,3.28,2.46,2.27,2.27,0,0,1,.92,2.89c-.23,1.27-.32,1.92-.4,2.58s-.18,1.4-.42,2.78a3.1,3.1,0,0,1-1.56,2.25A2.46,2.46,0,0,1,434.36,82.33Zm12-49.78a14.63,14.63,0,0,0-2.54.32c-.51.09-1,.18-1.53.25s-1,.11-1.52.16a13.37,13.37,0,0,0-2.79.44,8.08,8.08,0,0,0-2,1.16A16.88,16.88,0,0,1,434.27,36l-.21.11a22.67,22.67,0,0,0-3.44,2.11l-.57.45A19.79,19.79,0,0,0,427.37,41,7.77,7.77,0,0,0,426.31,43a16.16,16.16,0,0,1-.93,1.88A13.5,13.5,0,0,1,424,46.66a6.79,6.79,0,0,0-1.21,1.73,24.62,24.62,0,0,0-1.27,4.16,11.39,11.39,0,0,0,0,2.59c0,.59.07,1.17.07,1.76a15.38,15.38,0,0,0,.45,3.15c.09.41.17.81.25,1.22a14.12,14.12,0,0,1,.19,2.34,7,7,0,0,0,.25,2.17,14.51,14.51,0,0,0,1.55,2.67c.27.4.54.8.79,1.2a13.69,13.69,0,0,0,1.95,2.24c.35.35.7.7,1,1.07a23.3,23.3,0,0,0,3.32,2.89c.48.35.93.74,1.39,1.13l.66.56c.06-.39.1-.7.14-1,.08-.6.15-1.21.33-2.25a20.43,20.43,0,0,1-3-2.38,16.25,16.25,0,0,1-2.5-3.38l-.43-.69a20.07,20.07,0,0,1-2.16-4.5l-.08-.23a19,19,0,0,1-1.09-4.65c0-.42-.09-.84-.15-1.28a12.78,12.78,0,0,1-.11-3.82,20.67,20.67,0,0,1,1.75-5.18,21.31,21.31,0,0,1,2.7-4.75,21.85,21.85,0,0,1,4-3.71,16.65,16.65,0,0,1,4.05-2l1.22-.47A19,19,0,0,1,443,35.82a21.28,21.28,0,0,1,5.07.19l.87.1a16.41,16.41,0,0,1,4.16.83,9.76,9.76,0,0,1,3,2.05,12,12,0,0,0,1.13.94l.45.31a17.91,17.91,0,0,1,3.44,2.83,20.85,20.85,0,0,1,2.75,4.19l.1.18a19.43,19.43,0,0,1,1.87,4.44,21.18,21.18,0,0,1,.7,5,17.76,17.76,0,0,1-.9,4.94l-.19.65a20.81,20.81,0,0,1-2.12,5.26,21,21,0,0,1-3.61,4.39,15.27,15.27,0,0,1-3.3,2.23,15.32,15.32,0,0,0,1,1.21,5.9,5.9,0,0,0,1.32,1.15,20.93,20.93,0,0,0,2.46-1.82c.37-.32.75-.63,1.14-.94a12.9,12.9,0,0,0,2-1.78,24.26,24.26,0,0,0,2.38-3.4,23.26,23.26,0,0,0,1.48-3.56l.09-.26a22.29,22.29,0,0,0,1.31-8.1,17,17,0,0,0-.5-3.45l-.22-1A24,24,0,0,0,467.67,48,24.3,24.3,0,0,0,465.62,44a25.41,25.41,0,0,0-2.76-3.65,23.89,23.89,0,0,0-3.38-2.75l-.18-.13A24.59,24.59,0,0,0,455.43,35a9.71,9.71,0,0,0-2.51-.6c-.65-.1-1.3-.2-1.93-.36a13.63,13.63,0,0,1-2.2-.81,6.81,6.81,0,0,0-2.16-.7ZM435,74.92h0Z"/><path class="b" d="M425.48,90.16q-2.71,4.8-5.35,8.61a31.42,31.42,0,0,1-5.78,6.39,22.3,22.3,0,0,1-7.19,3.94,30,30,0,0,1-9.47,1.35,33.74,33.74,0,0,1-10.08-1.35l3-16.23A15.12,15.12,0,0,0,396.33,94a9.69,9.69,0,0,0,6.7-2.15,23.81,23.81,0,0,0,4.61-6.09l3-5-14.14-61H418l6.15,40.09h.25l7.53-13.92,3.16,24.77"/><polygon class="i" points="430.59 47.97 435.06 45.64 441.93 42.87 447.93 42.87 451.93 43.67 453.13 41.55 452.38 40.95 451.72 40.58 450.3 40.18 448.53 39.98 445.21 39.65 443.01 39.65 441.86 40.04 436.05 42.09 433.88 43.59 431.55 46.09 430.59 47.97"/><text class="j" transform="translate(466.72 106.04) rotate(46.1)">£.</text></svg>